<svg width="72" height="108" viewBox="0 0 72 108" fill="none" xmlns="http://www.w3.org/2000/svg">
<rect width="72" height="108" rx="3" fill="#D9D9D9"/>
<path d="M15.233 31.8182H16.7045L20.1648 40.2699H20.2841L23.7443 31.8182H25.2159V42H24.0625V34.2642H23.9631L20.7812 42H19.6676L16.4858 34.2642H16.3864V42H15.233V31.8182ZM36.2789 36.9091C36.2789 37.983 36.085 38.911 35.6973 39.6932C35.3095 40.4754 34.7775 41.0786 34.1014 41.5028C33.4252 41.9271 32.653 42.1392 31.7846 42.1392C30.9163 42.1392 30.144 41.9271 29.4679 41.5028C28.7917 41.0786 28.2598 40.4754 27.872 39.6932C27.4842 38.911 27.2903 37.983 27.2903 36.9091C27.2903 35.8352 27.4842 34.9072 27.872 34.125C28.2598 33.3428 28.7917 32.7396 29.4679 32.3153C30.144 31.8911 30.9163 31.679 31.7846 31.679C32.653 31.679 33.4252 31.8911 34.1014 32.3153C34.7775 32.7396 35.3095 33.3428 35.6973 34.125C36.085 34.9072 36.2789 35.8352 36.2789 36.9091ZM35.0858 36.9091C35.0858 36.0275 34.9383 35.2834 34.6433 34.6768C34.3516 34.0703 33.9556 33.6113 33.4551 33.2997C32.9579 32.9882 32.4011 32.8324 31.7846 32.8324C31.1681 32.8324 30.6097 32.9882 30.1092 33.2997C29.612 33.6113 29.216 34.0703 28.921 34.6768C28.6293 35.2834 28.4835 36.0275 28.4835 36.9091C28.4835 37.7907 28.6293 38.5348 28.921 39.1413C29.216 39.7479 29.612 40.2069 30.1092 40.5185C30.6097 40.83 31.1681 40.9858 31.7846 40.9858C32.4011 40.9858 32.9579 40.83 33.4551 40.5185C33.9556 40.2069 34.3516 39.7479 34.6433 39.1413C34.9383 38.5348 35.0858 37.7907 35.0858 36.9091ZM38.2912 31.8182L41.3139 40.3892H41.4332L44.456 31.8182H45.7486L42.0099 42H40.7372L36.9986 31.8182H38.2912ZM48.5675 31.8182V42H47.3345V31.8182H48.5675ZM51.0396 42V31.8182H57.1845V32.9119H52.2725V36.3523H56.8663V37.446H52.2725V40.9062H57.264V42H51.0396Z" fill="white"/>
<path d="M10.233 59V48.8182H13.6733C14.4721 48.8182 15.125 48.9624 15.6321 49.2507C16.1425 49.5357 16.5204 49.9219 16.7656 50.4091C17.0109 50.8963 17.1335 51.4399 17.1335 52.0398C17.1335 52.6397 17.0109 53.1849 16.7656 53.6754C16.5237 54.166 16.1491 54.5571 15.642 54.8487C15.1349 55.1371 14.4853 55.2812 13.6932 55.2812H11.2273V54.1875H13.6534C14.2003 54.1875 14.6394 54.093 14.9709 53.9041C15.3023 53.7152 15.5426 53.46 15.6918 53.1385C15.8442 52.8137 15.9205 52.4474 15.9205 52.0398C15.9205 51.6321 15.8442 51.2675 15.6918 50.946C15.5426 50.6245 15.3007 50.3726 14.9659 50.1903C14.6312 50.0047 14.187 49.9119 13.6335 49.9119H11.4659V59H10.233ZM27.7106 53.9091C27.7106 54.983 27.5167 55.911 27.1289 56.6932C26.7411 57.4754 26.2092 58.0786 25.533 58.5028C24.8569 58.9271 24.0846 59.1392 23.2163 59.1392C22.3479 59.1392 21.5756 58.9271 20.8995 58.5028C20.2234 58.0786 19.6914 57.4754 19.3036 56.6932C18.9158 55.911 18.7219 54.983 18.7219 53.9091C18.7219 52.8352 18.9158 51.9072 19.3036 51.125C19.6914 50.3428 20.2234 49.7396 20.8995 49.3153C21.5756 48.8911 22.3479 48.679 23.2163 48.679C24.0846 48.679 24.8569 48.8911 25.533 49.3153C26.2092 49.7396 26.7411 50.3428 27.1289 51.125C27.5167 51.9072 27.7106 52.8352 27.7106 53.9091ZM26.5174 53.9091C26.5174 53.0275 26.3699 52.2834 26.0749 51.6768C25.7833 51.0703 25.3872 50.6113 24.8867 50.2997C24.3896 49.9882 23.8327 49.8324 23.2163 49.8324C22.5998 49.8324 22.0413 49.9882 21.5408 50.2997C21.0437 50.6113 20.6476 51.0703 20.3526 51.6768C20.061 52.2834 19.9151 53.0275 19.9151 53.9091C19.9151 54.7907 20.061 55.5348 20.3526 56.1413C20.6476 56.7479 21.0437 57.2069 21.5408 57.5185C22.0413 57.83 22.5998 57.9858 23.2163 57.9858C23.8327 57.9858 24.3896 57.83 24.8867 57.5185C25.3872 57.2069 25.7833 56.7479 26.0749 56.1413C26.3699 55.5348 26.5174 54.7907 26.5174 53.9091ZM35.3519 51.3636C35.2923 50.8598 35.0503 50.4688 34.6261 50.1903C34.2018 49.9119 33.6815 49.7727 33.065 49.7727C32.6142 49.7727 32.2198 49.8456 31.8817 49.9915C31.547 50.1373 31.2852 50.3378 31.0962 50.593C30.9106 50.8482 30.8178 51.1383 30.8178 51.4631C30.8178 51.7348 30.8825 51.9685 31.0117 52.1641C31.1443 52.3563 31.3133 52.517 31.5188 52.6463C31.7243 52.7723 31.9397 52.8767 32.1651 52.9595C32.3905 53.0391 32.5977 53.1037 32.7866 53.1534L33.8207 53.4318C34.0858 53.5014 34.3808 53.5975 34.7056 53.7202C35.0337 53.8428 35.3469 54.0102 35.6452 54.2223C35.9469 54.4311 36.1954 54.6996 36.391 55.0277C36.5865 55.3558 36.6843 55.7585 36.6843 56.2358C36.6843 56.786 36.5401 57.2831 36.2518 57.7273C35.9667 58.1714 35.5491 58.5244 34.9989 58.7862C34.4521 59.0481 33.7875 59.179 33.0053 59.179C32.2762 59.179 31.6448 59.0613 31.1112 58.826C30.5808 58.5907 30.1632 58.2625 29.8583 57.8416C29.5567 57.4207 29.386 56.9318 29.3462 56.375H30.619C30.6521 56.7595 30.7814 57.0777 31.0067 57.3295C31.2354 57.5781 31.5238 57.7637 31.8718 57.8864C32.2231 58.0057 32.601 58.0653 33.0053 58.0653C33.476 58.0653 33.8986 57.9891 34.2731 57.8366C34.6476 57.6809 34.9442 57.4654 35.163 57.1903C35.3817 56.9119 35.4911 56.5871 35.4911 56.2159C35.4911 55.8778 35.3967 55.6027 35.2077 55.3906C35.0188 55.1785 34.7702 55.0062 34.462 54.8736C34.1538 54.741 33.8207 54.625 33.4627 54.5256L32.2099 54.1676C31.4144 53.9389 30.7847 53.6125 30.3207 53.1882C29.8567 52.764 29.6246 52.2088 29.6246 51.5227C29.6246 50.9527 29.7788 50.4555 30.087 50.0312C30.3986 49.6037 30.8162 49.2723 31.3398 49.0369C31.8668 48.7983 32.4551 48.679 33.1048 48.679C33.761 48.679 34.3443 48.7966 34.8548 49.032C35.3652 49.264 35.7695 49.5821 36.0678 49.9865C36.3694 50.3909 36.5285 50.8499 36.5451 51.3636H35.3519ZM38.1547 49.9119V48.8182H45.791V49.9119H42.5893V59H41.3564V49.9119H38.1547ZM47.6939 59V48.8182H53.8388V49.9119H48.9268V53.3523H53.5206V54.446H48.9268V57.9062H53.9183V59H47.6939ZM56.0611 59V48.8182H59.5014C60.2969 48.8182 60.9498 48.9541 61.4602 49.2259C61.9706 49.4943 62.3485 49.8639 62.5938 50.3345C62.839 50.8052 62.9616 51.3404 62.9616 51.9403C62.9616 52.5402 62.839 53.0722 62.5938 53.5362C62.3485 54.0002 61.9723 54.3648 61.4652 54.63C60.9581 54.8918 60.3101 55.0227 59.5213 55.0227H56.7372V53.9091H59.4815C60.0251 53.9091 60.4626 53.8295 60.794 53.6705C61.1288 53.5114 61.3707 53.286 61.5199 52.9943C61.6723 52.6993 61.7486 52.348 61.7486 51.9403C61.7486 51.5327 61.6723 51.1764 61.5199 50.8714C61.3674 50.5665 61.1238 50.3312 60.7891 50.1655C60.4543 49.9964 60.0118 49.9119 59.4616 49.9119H57.294V59H56.0611ZM60.8537 54.4261L63.3594 59H61.9276L59.4616 54.4261H60.8537Z" fill="white"/>
</svg>
